<svg width="461" height="376" viewBox="0 0 461 376" fill="none" xmlns="http://www.w3.org/2000/svg">
<rect x="4.77589" y="4.68848" width="450.467" height="365.74" stroke="#5E5E5E" stroke-width="9.37697"/>
<rect x="153.14" y="135.991" width="107.293" height="3.99683" fill="#5E5E5E" stroke="#5E5E5E" stroke-width="0.468848"/>
<rect x="153.132" y="65.4332" width="244.25" height="4.17603" transform="rotate(90 153.132 65.4332)" fill="#5E5E5E" stroke="#5E5E5E" stroke-width="0.468848"/>
<rect x="9.61138" y="60.9676" width="440.796" height="3.99683" fill="#5E5E5E" stroke="#5E5E5E" stroke-width="0.468848"/>
<rect x="9.61138" y="310.152" width="440.796" height="3.99683" fill="#5E5E5E" stroke="#5E5E5E" stroke-width="0.468848"/>
<rect x="320.82" y="185.56" width="129.588" height="3.99683" fill="#5E5E5E" stroke="#5E5E5E" stroke-width="0.468848"/>
<rect x="148.958" y="232.45" width="171.392" height="3.99683" fill="#5E5E5E" stroke="#5E5E5E" stroke-width="0.468848"/>
<rect x="324.997" y="65.4332" width="244.25" height="4.17603" transform="rotate(90 324.997 65.4332)" fill="#5E5E5E" stroke="#5E5E5E" stroke-width="0.468848"/>
<rect x="260.43" y="65.4332" width="74.5545" height="4.17604" transform="rotate(90 260.43 65.4332)" fill="#5E5E5E" stroke="#5E5E5E" stroke-width="0.468848"/>
<path d="M357.973 194.938C357.838 211.265 343.697 225.164 325.001 225.28L325.001 194.938L357.973 194.938Z" stroke="#5E5E5E" stroke-width="0.468848"/>
<path d="M325.231 227.303L325.231 191.577L320.587 191.577L320.587 227.303L325.231 227.303Z" fill="#F5F6FA"/>
<rect x="324.997" y="191.812" width="1.76399" height="4.17604" transform="rotate(90 324.997 191.812)" fill="#F5F6FA" stroke="#5E5E5E" stroke-width="0.468848"/>
<rect x="324.997" y="225.304" width="1.76399" height="4.17604" transform="rotate(90 324.997 225.304)" fill="#F5F6FA" stroke="#5E5E5E" stroke-width="0.468848"/>
<rect x="325.002" y="194.915" width="1.31742" height="32.9744" transform="rotate(-90 325.002 194.915)" stroke="#5E5E5E" stroke-width="0.468848"/>
<path d="M222.814 200.745C239.819 200.869 254.267 214.476 254.392 232.427H222.814V200.745Z" stroke="#5E5E5E" stroke-width="0.468848"/>
<path d="M256.487 232.215H219.328V236.681H256.487V232.215Z" fill="#F5F6FA"/>
<rect x="219.563" y="232.45" width="1.8536" height="3.99683" fill="#F5F6FA" stroke="#5E5E5E" stroke-width="0.468848"/>
<rect x="254.399" y="232.45" width="1.8536" height="3.99683" fill="#F5F6FA" stroke="#5E5E5E" stroke-width="0.468848"/>
<rect x="222.81" y="232.427" width="1.38911" height="31.684" transform="rotate(180 222.81 232.427)" stroke="#5E5E5E" stroke-width="0.468848"/>
<path d="M357.973 180.179C357.838 163.852 343.697 149.952 325.001 149.837L325.001 180.179L357.973 180.179Z" stroke="#5E5E5E" stroke-width="0.468848"/>
<rect x="0.234424" y="0.234424" width="1.31742" height="32.9744" transform="matrix(-1.03335e-07 1 1 9.55146e-08 324.767 179.967)" stroke="#5E5E5E" stroke-width="0.468848"/>
<path d="M357.973 180.179C357.838 163.852 343.697 149.952 325.001 149.837L325.001 180.179L357.973 180.179Z" stroke="#5E5E5E" stroke-width="0.468848"/>
<path d="M325.231 183.539L325.231 147.814L320.587 147.814L320.587 183.539L325.231 183.539Z" fill="#F5F6FA"/>
<rect x="324.997" y="148.048" width="1.76399" height="4.17604" transform="rotate(90 324.997 148.048)" fill="#F5F6FA" stroke="#5E5E5E" stroke-width="0.468848"/>
<rect x="324.997" y="181.541" width="1.76399" height="4.17604" transform="rotate(90 324.997 181.541)" fill="#F5F6FA" stroke="#5E5E5E" stroke-width="0.468848"/>
<rect x="0.234424" y="0.234424" width="1.31742" height="32.9744" transform="matrix(-1.03335e-07 1 1 9.55146e-08 324.767 179.967)" stroke="#5E5E5E" stroke-width="0.468848"/>
<path d="M288.761 100.712C288.626 114.626 276.49 126.473 260.435 126.588L260.435 100.712L288.761 100.712Z" stroke="#5E5E5E" stroke-width="0.468848"/>
<path d="M260.664 128.611L260.664 97.3516L256.019 97.3516L256.019 128.611L260.664 128.611Z" fill="#F5F6FA"/>
<rect x="260.43" y="97.586" width="1.76399" height="4.17604" transform="rotate(90 260.43 97.586)" fill="#F5F6FA" stroke="#5E5E5E" stroke-width="0.468848"/>
<rect x="260.43" y="126.613" width="1.76399" height="4.17604" transform="rotate(90 260.43 126.613)" fill="#F5F6FA" stroke="#5E5E5E" stroke-width="0.468848"/>
<rect x="0.234424" y="0.234424" width="1.31742" height="28.3295" transform="matrix(-1.03335e-07 1 1 9.55146e-08 260.2 99.1379)" stroke="#5E5E5E" stroke-width="0.468848"/>
<path d="M115.982 224.836C116.116 208.509 130.258 194.609 148.954 194.494L148.954 224.836L115.982 224.836Z" stroke="#5E5E5E" stroke-width="0.468848"/>
<path d="M148.723 192.471L148.723 228.196L153.368 228.196L153.368 192.471L148.723 192.471Z" fill="#F5F6FA"/>
<rect x="148.958" y="227.962" width="1.76399" height="4.17604" transform="rotate(-90 148.958 227.962)" fill="#F5F6FA" stroke="#5E5E5E" stroke-width="0.468848"/>
<rect x="148.958" y="194.469" width="1.76399" height="4.17604" transform="rotate(-90 148.958 194.469)" fill="#F5F6FA" stroke="#5E5E5E" stroke-width="0.468848"/>
<rect x="148.953" y="224.858" width="1.31742" height="32.9744" transform="rotate(90 148.953 224.858)" stroke="#5E5E5E" stroke-width="0.468848"/>
<rect x="459.785" y="198.511" width="1.87539" height="4.21964" transform="rotate(90 459.785 198.511)" fill="#F5F6FA" stroke="#5E5E5E" stroke-width="0.468848"/>
<mask id="path-38-inside-1_914_39319" fill="white">
<path d="M460.019 200.62L460.019 231.657L457.44 231.657L457.44 200.62L460.019 200.62Z"/>
</mask>
<path d="M460.019 200.62L460.019 231.657L457.44 231.657L457.44 200.62L460.019 200.62Z" fill="#F5F6FA"/>
<path d="M460.019 200.62L459.55 200.62L459.55 231.657L460.019 231.657L460.488 231.657L460.488 200.62L460.019 200.62ZM457.44 231.657L457.909 231.657L457.909 200.62L457.44 200.62L456.972 200.62L456.972 231.657L457.44 231.657Z" fill="#5E5E5E" mask="url(#path-38-inside-1_914_39319)"/>
<mask id="path-40-inside-2_914_39319" fill="white">
<path d="M457.44 200.62L457.44 231.657L455.331 231.657L455.331 200.62L457.44 200.62Z"/>
</mask>
<path d="M457.44 200.62L457.44 231.657L455.331 231.657L455.331 200.62L457.44 200.62Z" fill="#F5F6FA"/>
<path d="M455.331 231.657L455.799 231.657L455.799 200.62L455.331 200.62L454.862 200.62L454.862 231.657L455.331 231.657Z" fill="#5E5E5E" mask="url(#path-40-inside-2_914_39319)"/>
<rect x="459.785" y="231.892" width="1.87539" height="4.21964" transform="rotate(90 459.785 231.892)" fill="#F5F6FA" stroke="#5E5E5E" stroke-width="0.468848"/>
<mask id="path-43-inside-3_914_39319" fill="white">
<path d="M455.331 198.276L455.331 234.002L450.642 234.002L450.642 198.276L455.331 198.276Z"/>
</mask>
<path d="M455.331 198.276L455.331 234.002L450.642 234.002L450.642 198.276L455.331 198.276Z" fill="#F5F6FA"/>
<path d="M450.642 234.002L450.173 234.002L450.173 234.47L450.642 234.47L450.642 234.002ZM450.642 198.276L450.642 197.807L450.173 197.807L450.173 198.276L450.642 198.276ZM455.331 234.002L455.331 233.533L450.642 233.533L450.642 234.002L450.642 234.47L455.331 234.47L455.331 234.002ZM450.642 234.002L451.111 234.002L451.111 198.276L450.642 198.276L450.173 198.276L450.173 234.002L450.642 234.002ZM450.642 198.276L450.642 198.745L455.331 198.745L455.331 198.276L455.331 197.807L450.642 197.807L450.642 198.276Z" fill="#5E5E5E" mask="url(#path-43-inside-3_914_39319)"/>
<rect x="459.785" y="140.903" width="1.87539" height="4.21964" transform="rotate(90 459.785 140.903)" fill="#F5F6FA" stroke="#5E5E5E" stroke-width="0.468848"/>
<mask id="path-46-inside-4_914_39319" fill="white">
<path d="M460.019 143.013L460.019 174.05L457.44 174.05L457.44 143.013L460.019 143.013Z"/>
</mask>
<path d="M460.019 143.013L460.019 174.05L457.44 174.05L457.44 143.013L460.019 143.013Z" fill="#F5F6FA"/>
<path d="M460.019 143.013L459.55 143.013L459.55 174.05L460.019 174.05L460.488 174.05L460.488 143.013L460.019 143.013ZM457.44 174.05L457.909 174.05L457.909 143.013L457.44 143.013L456.972 143.013L456.972 174.05L457.44 174.05Z" fill="#5E5E5E" mask="url(#path-46-inside-4_914_39319)"/>
<mask id="path-48-inside-5_914_39319" fill="white">
<path d="M457.44 143.013L457.44 174.05L455.331 174.05L455.331 143.013L457.44 143.013Z"/>
</mask>
<path d="M457.44 143.013L457.44 174.05L455.331 174.05L455.331 143.013L457.44 143.013Z" fill="#F5F6FA"/>
<path d="M455.331 174.05L455.799 174.05L455.799 143.013L455.331 143.013L454.862 143.013L454.862 174.05L455.331 174.05Z" fill="#5E5E5E" mask="url(#path-48-inside-5_914_39319)"/>
<rect x="459.785" y="174.284" width="1.87539" height="4.21964" transform="rotate(90 459.785 174.284)" fill="#F5F6FA" stroke="#5E5E5E" stroke-width="0.468848"/>
<mask id="path-51-inside-6_914_39319" fill="white">
<path d="M455.331 140.669L455.331 176.394L450.642 176.394L450.642 140.669L455.331 140.669Z"/>
</mask>
<path d="M455.331 140.669L455.331 176.394L450.642 176.394L450.642 140.669L455.331 140.669Z" fill="#F5F6FA"/>
<path d="M450.642 176.394L450.173 176.394L450.173 176.863L450.642 176.863L450.642 176.394ZM450.642 140.669L450.642 140.2L450.173 140.2L450.173 140.669L450.642 140.669ZM455.331 176.394L455.331 175.925L450.642 175.925L450.642 176.394L450.642 176.863L455.331 176.863L455.331 176.394ZM450.642 176.394L451.111 176.394L451.111 140.669L450.642 140.669L450.173 140.669L450.173 176.394L450.642 176.394ZM450.642 140.669L450.642 141.138L455.331 141.138L455.331 140.669L455.331 140.2L450.642 140.2L450.642 140.669Z" fill="#5E5E5E" mask="url(#path-51-inside-6_914_39319)"/>
<rect x="0.234424" y="234.214" width="1.87539" height="4.21964" transform="rotate(-90 0.234424 234.214)" fill="#F5F6FA" stroke="#5E5E5E" stroke-width="0.468848"/>
<mask id="path-54-inside-7_914_39319" fill="white">
<path d="M0 232.104L4.23364e-07 196.601L2.57867 196.601L2.57867 232.104L0 232.104Z"/>
</mask>
<path d="M0 232.104L4.23364e-07 196.601L2.57867 196.601L2.57867 232.104L0 232.104Z" fill="#F5F6FA"/>
<path d="M0 232.104L0.468848 232.104L0.468849 196.601L4.23364e-07 196.601L-0.468848 196.601L-0.468848 232.104L0 232.104ZM2.57867 196.601L2.10982 196.601L2.10982 232.104L2.57867 232.104L3.04751 232.104L3.04751 196.601L2.57867 196.601Z" fill="#5E5E5E" mask="url(#path-54-inside-7_914_39319)"/>
<mask id="path-56-inside-8_914_39319" fill="white">
<path d="M2.57861 232.104L2.57861 196.601L4.68843 196.601L4.68843 232.104L2.57861 232.104Z"/>
</mask>
<path d="M2.57861 232.104L2.57861 196.601L4.68843 196.601L4.68843 232.104L2.57861 232.104Z" fill="#F5F6FA"/>
<path d="M4.68843 196.601L4.21958 196.601L4.21958 232.104L4.68843 232.104L5.15728 232.104L5.15728 196.601L4.68843 196.601Z" fill="#5E5E5E" mask="url(#path-56-inside-8_914_39319)"/>
<rect x="0.234424" y="196.367" width="1.87539" height="4.21964" transform="rotate(-90 0.234424 196.367)" fill="#F5F6FA" stroke="#5E5E5E" stroke-width="0.468848"/>
<mask id="path-59-inside-9_914_39319" fill="white">
<path d="M4.68848 234.448L4.68848 194.257L9.37696 194.257L9.37696 234.448L4.68848 234.448Z"/>
</mask>
<path d="M4.68848 234.448L4.68848 194.257L9.37696 194.257L9.37696 234.448L4.68848 234.448Z" fill="#F5F6FA"/>
<path d="M9.37696 194.257L9.84581 194.257L9.84581 193.788L9.37696 193.788L9.37696 194.257ZM9.37696 234.448L9.37696 234.917L9.84581 234.917L9.84581 234.448L9.37696 234.448ZM4.68848 194.257L4.68848 194.726L9.37696 194.726L9.37696 194.257L9.37696 193.788L4.68848 193.788L4.68848 194.257ZM9.37696 194.257L8.90811 194.257L8.90811 234.448L9.37696 234.448L9.84581 234.448L9.84581 194.257L9.37696 194.257ZM9.37696 234.448L9.37696 233.979L4.68848 233.979L4.68848 234.448L4.68848 234.917L9.37696 234.917L9.37696 234.448Z" fill="#5E5E5E" mask="url(#path-59-inside-9_914_39319)"/>
<rect x="0.234424" y="180.625" width="1.87539" height="4.21964" transform="rotate(-90 0.234424 180.625)" fill="#F5F6FA" stroke="#5E5E5E" stroke-width="0.468848"/>
<mask id="path-62-inside-10_914_39319" fill="white">
<path d="M0 178.516L4.23364e-07 143.013L2.57867 143.013L2.57867 178.516L0 178.516Z"/>
</mask>
<path d="M0 178.516L4.23364e-07 143.013L2.57867 143.013L2.57867 178.516L0 178.516Z" fill="#F5F6FA"/>
<path d="M0 178.516L0.468848 178.516L0.468849 143.013L4.23364e-07 143.013L-0.468848 143.013L-0.468848 178.516L0 178.516ZM2.57867 143.013L2.10982 143.013L2.10982 178.516L2.57867 178.516L3.04751 178.516L3.04751 143.013L2.57867 143.013Z" fill="#5E5E5E" mask="url(#path-62-inside-10_914_39319)"/>
<mask id="path-64-inside-11_914_39319" fill="white">
<path d="M2.57861 178.516L2.57861 143.013L4.68843 143.013L4.68843 178.516L2.57861 178.516Z"/>
</mask>
<path d="M2.57861 178.516L2.57861 143.013L4.68843 143.013L4.68843 178.516L2.57861 178.516Z" fill="#F5F6FA"/>
<path d="M4.68843 143.013L4.21958 143.013L4.21958 178.516L4.68843 178.516L5.15728 178.516L5.15728 143.013L4.68843 143.013Z" fill="#5E5E5E" mask="url(#path-64-inside-11_914_39319)"/>
<rect x="0.234424" y="142.779" width="1.87539" height="4.21964" transform="rotate(-90 0.234424 142.779)" fill="#F5F6FA" stroke="#5E5E5E" stroke-width="0.468848"/>
<mask id="path-67-inside-12_914_39319" fill="white">
<path d="M4.68848 180.86L4.68848 140.669L9.37696 140.669L9.37696 180.86L4.68848 180.86Z"/>
</mask>
<path d="M4.68848 180.86L4.68848 140.669L9.37696 140.669L9.37696 180.86L4.68848 180.86Z" fill="#F5F6FA"/>
<path d="M9.37696 140.669L9.84581 140.669L9.84581 140.2L9.37696 140.2L9.37696 140.669ZM9.37696 180.86L9.37696 181.329L9.84581 181.329L9.84581 180.86L9.37696 180.86ZM4.68848 140.669L4.68848 141.138L9.37696 141.138L9.37696 140.669L9.37696 140.2L4.68848 140.2L4.68848 140.669ZM9.37696 140.669L8.90811 140.669L8.90811 180.86L9.37696 180.86L9.84581 180.86L9.84581 140.669L9.37696 140.669ZM9.37696 180.86L9.37696 180.391L4.68848 180.391L4.68848 180.86L4.68848 181.329L9.37696 181.329L9.37696 180.86Z" fill="#5E5E5E" mask="url(#path-67-inside-12_914_39319)"/>
<mask id="path-69-inside-13_914_39319" fill="white">
<path d="M9.37695 256.331H11.7212L11.7212 265.708H9.37695L9.37695 256.331Z"/>
</mask>
<path d="M9.37695 256.331H11.7212L11.7212 265.708H9.37695L9.37695 256.331Z" fill="#F5F6FA"/>
<path d="M9.37695 256.331V255.862H8.9081V256.331H9.37695ZM11.7212 256.331H12.19V255.862H11.7212V256.331ZM11.7212 265.708V266.177H12.19V265.708H11.7212ZM9.37695 265.708H8.9081V266.177H9.37695V265.708ZM9.37695 256.331V256.8H11.7212V256.331V255.862H9.37695V256.331ZM11.7212 256.331H11.2523L11.2523 265.708H11.7212H12.19L12.19 256.331H11.7212ZM11.7212 265.708V265.239H9.37695V265.708V266.177H11.7212V265.708ZM9.37695 265.708H9.8458L9.8458 256.331H9.37695H8.9081L8.9081 265.708H9.37695Z" fill="#5E5E5E" mask="url(#path-69-inside-13_914_39319)"/>
<mask id="path-71-inside-14_914_39319" fill="white">
<path d="M11.7212 256.331H54.7319V258.206H11.7212V256.331Z"/>
</mask>
<path d="M11.7212 256.331H54.7319V258.206H11.7212V256.331Z" fill="#F5F6FA"/>
<path d="M11.7212 256.331V256.8H54.7319V256.331V255.862H11.7212V256.331ZM54.7319 258.206V257.737H11.7212V258.206V258.675H54.7319V258.206Z" fill="#5E5E5E" mask="url(#path-71-inside-14_914_39319)"/>
<mask id="path-73-inside-15_914_39319" fill="white">
<path d="M11.7212 258.206H54.7319V259.613H11.7212V258.206Z"/>
</mask>
<path d="M11.7212 258.206H54.7319V259.613H11.7212V258.206Z" fill="#F5F6FA"/>
<path d="M54.7319 259.613V259.144H11.7212V259.613V260.082H54.7319V259.613Z" fill="#5E5E5E" mask="url(#path-73-inside-15_914_39319)"/>
<mask id="path-75-inside-16_914_39319" fill="white">
<path d="M11.7212 259.613H54.7319V265.708H11.7212L11.7212 259.613Z"/>
</mask>
<path d="M11.7212 259.613H54.7319V265.708H11.7212L11.7212 259.613Z" fill="#F5F6FA"/>
<path d="M54.7319 265.708V265.239H11.7212V265.708V266.177H54.7319V265.708Z" fill="#5E5E5E" mask="url(#path-75-inside-16_914_39319)"/>
<mask id="path-77-inside-17_914_39319" fill="white">
<path d="M54.7319 256.331H57.545V258.206H54.7319V256.331Z"/>
</mask>
<path d="M54.7319 256.331H57.545V258.206H54.7319V256.331Z" fill="#F5F6FA"/>
<path d="M57.545 256.331H58.0139V255.862H57.545V256.331ZM57.545 258.206V258.675H58.0139V258.206H57.545ZM54.7319 256.331V256.8H57.545V256.331V255.862H54.7319V256.331ZM57.545 256.331H57.0762V258.206H57.545H58.0139V256.331H57.545ZM57.545 258.206V257.737H54.7319V258.206V258.675H57.545V258.206Z" fill="#5E5E5E" mask="url(#path-77-inside-17_914_39319)"/>
<mask id="path-79-inside-18_914_39319" fill="white">
<path d="M54.7319 258.206H57.545V259.613H54.7319V258.206Z"/>
</mask>
<path d="M54.7319 258.206H57.545V259.613H54.7319V258.206Z" fill="#F5F6FA"/>
<path d="M57.545 259.613V260.082H58.0139V259.613H57.545ZM57.545 258.206H57.0762V259.613H57.545H58.0139V258.206H57.545ZM57.545 259.613V259.144H54.7319V259.613V260.082H57.545V259.613Z" fill="#5E5E5E" mask="url(#path-79-inside-18_914_39319)"/>
<mask id="path-81-inside-19_914_39319" fill="white">
<path d="M54.7319 259.613H57.545V261.254H54.7319V259.613Z"/>
</mask>
<path d="M54.7319 259.613H57.545V261.254H54.7319V259.613Z" fill="#F5F6FA"/>
<path d="M54.7319 259.613V259.378H54.2631V259.613H54.7319ZM54.7319 261.254H54.2631V261.723H54.7319V261.254ZM54.7319 259.613V259.847H57.545V259.613V259.378H54.7319V259.613ZM57.545 261.254V260.785H54.7319V261.254V261.723H57.545V261.254ZM54.7319 261.254H55.2008V259.613H54.7319H54.2631V261.254H54.7319Z" fill="#5E5E5E" mask="url(#path-81-inside-19_914_39319)"/>
<mask id="path-83-inside-20_914_39319" fill="white">
<path d="M54.7319 261.254H57.545V262.66H54.7319V261.254Z"/>
</mask>
<path d="M54.7319 261.254H57.545V262.66H54.7319V261.254Z" fill="#F5F6FA"/>
<path d="M54.7319 262.66H54.2631V263.129H54.7319V262.66ZM57.545 262.66V262.191H54.7319V262.66V263.129H57.545V262.66ZM54.7319 262.66H55.2008V261.254H54.7319H54.2631V262.66H54.7319Z" fill="#5E5E5E" mask="url(#path-83-inside-20_914_39319)"/>
<mask id="path-85-inside-21_914_39319" fill="white">
<path d="M54.7319 262.66H57.545V265.708H54.7319V262.66Z"/>
</mask>
<path d="M54.7319 262.66H57.545V265.708H54.7319V262.66Z" fill="#F5F6FA"/>
<path d="M57.545 265.708V265.239H54.7319V265.708V266.177H57.545V265.708Z" fill="#5E5E5E" mask="url(#path-85-inside-21_914_39319)"/>
<mask id="path-87-inside-22_914_39319" fill="white">
<path d="M57.5449 256.331H100.556V259.378H57.5449V256.331Z"/>
</mask>
<path d="M57.5449 256.331H100.556V259.378H57.5449V256.331Z" fill="#F5F6FA"/>
<path d="M57.5449 256.331V256.8H100.556V256.331V255.862H57.5449V256.331Z" fill="#5E5E5E" mask="url(#path-87-inside-22_914_39319)"/>
<mask id="path-89-inside-23_914_39319" fill="white">
<path d="M57.5449 259.378H100.556V261.254H57.5449V259.378Z"/>
</mask>
<path d="M57.5449 259.378H100.556V261.254H57.5449V259.378Z" fill="#F5F6FA"/>
<path d="M57.5449 259.378V259.847H100.556V259.378V258.91H57.5449V259.378ZM100.556 261.254V260.785H57.5449V261.254V261.723H100.556V261.254Z" fill="#5E5E5E" mask="url(#path-89-inside-23_914_39319)"/>
<mask id="path-91-inside-24_914_39319" fill="white">
<path d="M57.5449 261.254H100.556V262.66H57.5449V261.254Z"/>
</mask>
<path d="M57.5449 261.254H100.556V262.66H57.5449V261.254Z" fill="#F5F6FA"/>
<path d="M100.556 262.66V262.191H57.5449V262.66V263.129H100.556V262.66Z" fill="#5E5E5E" mask="url(#path-91-inside-24_914_39319)"/>
<mask id="path-93-inside-25_914_39319" fill="white">
<path d="M57.5449 262.66H100.556V265.708H57.5449V262.66Z"/>
</mask>
<path d="M57.5449 262.66H100.556V265.708H57.5449V262.66Z" fill="#F5F6FA"/>
<path d="M100.556 265.708V265.239H57.5449V265.708V266.177H100.556V265.708Z" fill="#5E5E5E" mask="url(#path-93-inside-25_914_39319)"/>
<mask id="path-95-inside-26_914_39319" fill="white">
<path d="M103.369 265.708H100.556V263.832H103.369V265.708Z"/>
</mask>
<path d="M103.369 265.708H100.556V263.832H103.369V265.708Z" fill="#F5F6FA"/>
<path d="M100.556 265.708H100.087V266.177H100.556V265.708ZM100.556 263.832V263.364H100.087V263.832H100.556ZM103.369 265.708V265.239H100.556V265.708V266.177H103.369V265.708ZM100.556 265.708H101.024V263.832H100.556H100.087V265.708H100.556ZM100.556 263.832V264.301H103.369V263.832V263.364H100.556V263.832Z" fill="#5E5E5E" mask="url(#path-95-inside-26_914_39319)"/>
<mask id="path-97-inside-27_914_39319" fill="white">
<path d="M103.369 263.832H100.556V262.426H103.369V263.832Z"/>
</mask>
<path d="M103.369 263.832H100.556V262.426H103.369V263.832Z" fill="#F5F6FA"/>
<path d="M100.556 262.426V261.957H100.087V262.426H100.556ZM100.556 263.832H101.024V262.426H100.556H100.087V263.832H100.556ZM100.556 262.426V262.895H103.369V262.426V261.957H100.556V262.426Z" fill="#5E5E5E" mask="url(#path-97-inside-27_914_39319)"/>
<mask id="path-99-inside-28_914_39319" fill="white">
<path d="M103.369 262.426H100.556V260.785H103.369V262.426Z"/>
</mask>
<path d="M103.369 262.426H100.556V260.785H103.369V262.426Z" fill="#F5F6FA"/>
<path d="M103.369 262.426V262.66H103.838V262.426H103.369ZM103.369 260.785H103.838V260.316H103.369V260.785ZM103.369 262.426V262.191H100.556V262.426V262.66H103.369V262.426ZM100.556 260.785V261.254H103.369V260.785V260.316H100.556V260.785ZM103.369 260.785H102.9V262.426H103.369H103.838V260.785H103.369Z" fill="#5E5E5E" mask="url(#path-99-inside-28_914_39319)"/>
<mask id="path-101-inside-29_914_39319" fill="white">
<path d="M103.369 260.785H100.556V259.378H103.369V260.785Z"/>
</mask>
<path d="M103.369 260.785H100.556V259.378H103.369V260.785Z" fill="#F5F6FA"/>
<path d="M103.369 259.378H103.838V258.91H103.369V259.378ZM100.556 259.378V259.847H103.369V259.378V258.91H100.556V259.378ZM103.369 259.378H102.9V260.785H103.369H103.838V259.378H103.369Z" fill="#5E5E5E" mask="url(#path-101-inside-29_914_39319)"/>
<mask id="path-103-inside-30_914_39319" fill="white">
<path d="M103.369 259.378H100.556V256.331H103.369V259.378Z"/>
</mask>
<path d="M103.369 259.378H100.556V256.331H103.369V259.378Z" fill="#F5F6FA"/>
<path d="M100.556 256.331V256.8H103.369V256.331V255.862H100.556V256.331Z" fill="#5E5E5E" mask="url(#path-103-inside-30_914_39319)"/>
<mask id="path-105-inside-31_914_39319" fill="white">
<path d="M103.369 256.331H146.379V262.426H103.369V256.331Z"/>
</mask>
<path d="M103.369 256.331H146.379V262.426H103.369V256.331Z" fill="#F5F6FA"/>
<path d="M103.369 256.331V256.8H146.379V256.331V255.862H103.369V256.331Z" fill="#5E5E5E" mask="url(#path-105-inside-31_914_39319)"/>
<mask id="path-107-inside-32_914_39319" fill="white">
<path d="M103.369 262.426H146.379V264.301H103.369V262.426Z"/>
</mask>
<path d="M103.369 262.426H146.379V264.301H103.369V262.426Z" fill="#F5F6FA"/>
<path d="M103.369 262.426V262.895H146.379V262.426V261.957H103.369V262.426ZM146.379 264.301V263.832H103.369V264.301V264.77H146.379V264.301Z" fill="#5E5E5E" mask="url(#path-107-inside-32_914_39319)"/>
<mask id="path-109-inside-33_914_39319" fill="white">
<path d="M103.369 264.301H146.379V265.708H103.369V264.301Z"/>
</mask>
<path d="M103.369 264.301H146.379V265.708H103.369V264.301Z" fill="#F5F6FA"/>
<path d="M146.379 265.708V265.239H103.369V265.708V266.177H146.379V265.708Z" fill="#5E5E5E" mask="url(#path-109-inside-33_914_39319)"/>
<mask id="path-111-inside-34_914_39319" fill="white">
<path d="M146.379 256.331H148.724V265.708H146.379V256.331Z"/>
</mask>
<path d="M146.379 256.331H148.724V265.708H146.379V256.331Z" fill="#F5F6FA"/>
<path d="M146.379 256.331V255.862H145.911V256.331H146.379ZM148.724 256.331H149.192V255.862H148.724V256.331ZM148.724 265.708V266.177H149.192V265.708H148.724ZM146.379 265.708H145.911V266.177H146.379V265.708ZM146.379 256.331V256.8H148.724V256.331V255.862H146.379V256.331ZM148.724 256.331H148.255V265.708H148.724H149.192V256.331H148.724ZM148.724 265.708V265.239H146.379V265.708V266.177H148.724V265.708ZM146.379 265.708H146.848V256.331H146.379H145.911V265.708H146.379Z" fill="#5E5E5E" mask="url(#path-111-inside-34_914_39319)"/>
</svg>
