<svg width="46" height="46" viewBox="0 0 46 46" fill="none" xmlns="http://www.w3.org/2000/svg">
<rect width="45.893" height="45.893" rx="22.9465" fill="#ECEDF2"/>
<path d="M24.5975 28.1617H21.2946C21.0066 28.1617 20.7731 27.9282 20.7731 27.6402V25.641C20.7731 25.353 20.5396 25.1195 20.2516 25.1195H18.2525C17.9644 25.1195 17.731 24.8861 17.731 24.598V21.2951C17.731 21.0071 17.9644 20.7736 18.2525 20.7736H20.2516C20.5396 20.7736 20.7731 20.5401 20.7731 20.2521V18.253C20.7731 17.9649 21.0066 17.7314 21.2946 17.7314H24.5975C24.8856 17.7314 25.119 17.9649 25.119 18.253V20.2521C25.119 20.5401 25.3525 20.7736 25.6406 20.7736H27.6397C27.9277 20.7736 28.1612 21.0071 28.1612 21.2951V24.598C28.1612 24.8861 27.9277 25.1195 27.6397 25.1195H25.6406C25.3525 25.1195 25.119 25.353 25.119 25.641V27.6402C25.119 27.9282 24.8856 28.1617 24.5975 28.1617Z" stroke="#4A4A4B" stroke-width="1.56454"/>
<path d="M22.9463 31.6386C27.7466 31.6386 31.6381 27.7471 31.6381 22.9467C31.6381 18.1464 27.7466 14.2549 22.9463 14.2549C18.1459 14.2549 14.2544 18.1464 14.2544 22.9467C14.2544 27.7471 18.1459 31.6386 22.9463 31.6386Z" stroke="#4A4A4B" stroke-width="1.56454" stroke-linecap="round" stroke-linejoin="round"/>
</svg>
