<svg width="46" height="46" viewBox="0 0 46 46" fill="none" xmlns="http://www.w3.org/2000/svg">
<path d="M0 22.9465C0 10.2735 10.2735 0 22.9465 0V0C35.6195 0 45.893 10.2735 45.893 22.9465V22.9465C45.893 35.6195 35.6195 45.893 22.9465 45.893V45.893C10.2735 45.893 0 35.6195 0 22.9465V22.9465Z" fill="#ECEDF2"/>
<path d="M20.3389 14.2549H25.554" stroke="#4A4A4B" stroke-width="1.56454" stroke-linecap="round" stroke-linejoin="round"/>
<path d="M22.9458 21.2083V24.685" stroke="#4A4A4B" stroke-width="1.56454" stroke-linecap="round" stroke-linejoin="round"/>
<path d="M22.9462 31.6384C26.7865 31.6384 29.8997 28.5253 29.8997 24.6849C29.8997 20.8446 26.7865 17.7314 22.9462 17.7314C19.1059 17.7314 15.9927 20.8446 15.9927 24.6849C15.9927 28.5253 19.1059 31.6384 22.9462 31.6384Z" stroke="#4A4A4B" stroke-width="1.56454" stroke-linecap="round" stroke-linejoin="round"/>
</svg>
